HIERARCHY
ROOT Hips
{
	OFFSET	0.00	0.00	0.00
	CHANNELS 6 Xposition Yposition Zposition Zrotation Xrotation Yrotation
	JOINT LeftUpLeg
	{
		OFFSET	 0.126116	-0.014019	-0.065224
		CHANNELS 3 Zrotation Xrotation Yrotation
		JOINT LeftLeg
		{
			OFFSET	 0.000000	 0.000000	 0.569914
			CHANNELS 3 Zrotation Xrotation Yrotation
			JOINT LeftFoot
			{
				OFFSET	 0.000000	 0.000000	 0.544423
				CHANNELS 3 Zrotation Xrotation Yrotation
				JOINT LeftToeBase
				{
					OFFSET	 0.000000	 0.000000	 0.207117
					CHANNELS 3 Zrotation Xrotation Yrotation
					End Site
					{
						OFFSET	 0.000000	 0.000000	 0.207117
					}
				}
			}
		}
	}
	JOINT RightUpLeg
	{
		OFFSET	-0.124023	-0.008373	-0.065224
		CHANNELS 3 Zrotation Xrotation Yrotation
		JOINT RightLeg
		{
			OFFSET	 0.000000	 0.000000	 0.570047
			CHANNELS 3 Zrotation Xrotation Yrotation
			JOINT RightFoot
			{
				OFFSET	 0.000000	 0.000000	 0.544354
				CHANNELS 3 Zrotation Xrotation Yrotation
				JOINT RightToeBase
				{
					OFFSET	 0.000000	 0.000000	 0.207540
					CHANNELS 3 Zrotation Xrotation Yrotation
					End Site
					{
						OFFSET	 0.000000	 0.000000	 0.207540
					}
				}
			}
		}
	}
	JOINT Spine
	{
		OFFSET	 0.000184	-0.007763	 0.117403
		CHANNELS 3 Zrotation Xrotation Yrotation
		JOINT Spine1
		{
			OFFSET	 0.000000	 0.000000	 0.137269
			CHANNELS 3 Zrotation Xrotation Yrotation
			JOINT Spine2
			{
				OFFSET	 0.000000	 0.000000	 0.156879
				CHANNELS 3 Zrotation Xrotation Yrotation
				JOINT LeftShoulder
				{
					OFFSET	 0.080501	-0.002496	 0.160144
					CHANNELS 3 Zrotation Xrotation Yrotation
					JOINT LeftArm
					{
						OFFSET	 0.000000	 0.000000	 0.164363
						CHANNELS 3 Zrotation Xrotation Yrotation
						JOINT LeftForeArm
						{
							OFFSET	 0.000000	 0.000000	 0.364576
							CHANNELS 3 Zrotation Xrotation Yrotation
							JOINT LeftHand
							{
								OFFSET	 0.000000	 0.000000	 0.360812
								CHANNELS 3 Zrotation Xrotation Yrotation
								JOINT LeftHandIndex1
								{
									OFFSET	 0.000000	 0.000000	 0.086006
									CHANNELS 3 Zrotation Xrotation Yrotation
									JOINT LeftHandIndex2
									{
										OFFSET	 0.000000	 0.000000	 0.047236
										CHANNELS 3 Zrotation Xrotation Yrotation
										JOINT LeftHandIndex3
										{
											OFFSET	-0.004284	-0.000551	 0.038166
											CHANNELS 3 Zrotation Xrotation Yrotation
											End Site
											{
												OFFSET	-0.004284	-0.000551	 0.038166
											}
										}
									}
								}
							}
						}
					}
				}
				JOINT Neck
				{
					OFFSET	 0.000000	 0.000000	 0.176489
					CHANNELS 3 Zrotation Xrotation Yrotation
					JOINT Head
					{
						OFFSET	 0.000000	-0.001747	 0.077940
						CHANNELS 3 Zrotation Xrotation Yrotation
						End Site
						{
							OFFSET	 0.000000	-0.001747	 0.077940
						}
					}
				}
				JOINT RightShoulder
				{
					OFFSET	-0.080363	 0.000306	 0.159706
					CHANNELS 3 Zrotation Xrotation Yrotation
					JOINT RightArm
					{
						OFFSET	 0.000000	 0.000000	 0.164196
						CHANNELS 3 Zrotation Xrotation Yrotation
						JOINT RightForeArm
						{
							OFFSET	 0.000000	 0.000000	 0.365611
							CHANNELS 3 Zrotation Xrotation Yrotation
							JOINT RightHand
							{
								OFFSET	 0.000000	 0.000000	 0.360648
								CHANNELS 3 Zrotation Xrotation Yrotation
								JOINT RightHandIndex1
								{
									OFFSET	 0.000000	 0.000000	 0.069977
									CHANNELS 3 Zrotation Xrotation Yrotation
									JOINT RightHandIndex2
									{
										OFFSET	 0.000000	 0.000000	 0.052305
										CHANNELS 3 Zrotation Xrotation Yrotation
										JOINT RightHandIndex3
										{
											OFFSET	 0.009002	-0.000782	 0.042196
											CHANNELS 3 Zrotation Xrotation Yrotation
											End Site
											{
												OFFSET	 0.009002	-0.000782	 0.042196
											}
										}
									}
								}
							}
						}
					}
				}
			}
		}
	}
}
MOTION
Frames:    6
Frame Time: 0.03333334
-0.027950	 0.240835	 1.087747	 0.804296	 32.542370	-6.808357	 35.776690	-74.769710	-150.170400	 4.537561	-63.745840	 4.445208	 29.027750	 73.016780	-37.003870	-2.385832	 28.452790	-0.000001	 29.912700	-78.691640	-148.869900	-13.221450	-66.109840	-7.391321	-1.544556	 71.707300	 20.300510	 2.384659	 28.388700	-0.000001	 24.432990	 13.768480	 2.060595	-2.907440	 14.994710	 4.077440	 2.534130	 2.149189	 1.176268	-99.131290	 68.197850	 156.892700	 2.308585	-9.162330	-51.944890	 0.773586	-0.709808	-5.274084	-2.336514	-37.465230	-4.846968	-2.027600	 6.559038	 9.033609	-5.188889	 0.308190	 3.541030	-5.234859	 0.342567	 0.430617	 0.284539	 17.214910	-5.829975	 4.693147	-26.443910	 1.344421	 97.444020	 64.609340	-159.363500	-11.904780	 8.001594	 59.525440	-14.730530	-4.139736	 29.528730	-14.521100	-34.889180	 0.748897	 1.803333	 3.979147	-15.098590	 4.898592	 3.004813	-9.310344	 5.224449	 0.395017	 2.014677
-0.026140	 0.239715	 1.097940	 0.785460	 31.888300	-6.583740	 33.209620	-73.255880	-152.797400	 4.136656	-62.199870	 4.029513	 28.392700	 72.458150	-36.224920	-2.385832	 28.452790	-0.000001	 24.200670	-77.329850	-154.198800	-12.867250	-64.567950	-6.980545	-1.298064	 71.203570	 20.059880	 2.384659	 28.388700	-0.000001	 23.518970	 13.504610	 1.935678	-2.833415	 14.771700	 3.932437	 2.527703	 1.842618	 1.059541	-98.968280	 68.279540	 157.270800	 2.629096	-7.858234	-52.166760	 2.442497	-1.002366	-6.049855	-2.579290	-34.462880	-6.317870	-2.027600	 6.559038	 9.033609	-5.188889	 0.308190	 3.541030	-5.234859	 0.342567	 0.430617	-0.022403	 15.278450	-5.089897	 4.371532	-24.566160	 0.784731	 97.339420	 64.497510	-159.748700	-12.606740	 8.108944	 58.312850	-15.520480	-5.192945	 32.379840	-14.141760	-31.970110	 2.765603	 1.803333	 3.979147	-15.098590	 4.898592	 3.004813	-9.310344	 5.224449	 0.395017	 2.014677
-0.023969	 0.238120	 1.110065	 0.855680	 31.152730	-6.353898	 30.606170	-71.450780	-155.392200	 3.809228	-60.305410	 3.672468	 27.492070	 71.714290	-35.213310	-2.385832	 28.452790	-0.000001	 18.813120	-75.624280	-159.068100	-12.503880	-62.730650	-6.547431	-0.950124	 70.579490	 19.705720	 2.384659	 28.388700	-0.000001	 22.304400	 13.153300	 1.788709	-2.752234	 14.549160	 3.748132	 2.495477	 1.439932	 0.924578	-98.675850	 68.578360	 157.728800	 3.004763	-6.167461	-52.551200	 4.306340	-1.370994	-6.884722	-2.958535	-31.398130	-7.999971	-2.027600	 6.559038	 9.033609	-5.188889	 0.308190	 3.541030	-5.234859	 0.342567	 0.430617	-0.327792	 12.723680	-4.466992	 4.091793	-22.064180	 0.299668	 97.189320	 64.253000	-160.367600	-13.506870	 8.023191	 57.063480	-16.293140	-6.502109	 35.656360	-13.923180	-28.735880	 4.981311	 1.803333	 3.979147	-15.098590	 4.898592	 3.004813	-9.310344	 5.224449	 0.395017	 2.014677
-0.022028	 0.236492	 1.120772	 0.928840	 30.525850	-6.155488	 28.690580	-69.827610	-157.299700	 3.553353	-58.594820	 3.389797	 26.733000	 71.054170	-34.327320	-2.385832	 28.452790	-0.000001	 15.022560	-74.043550	-162.403100	-12.217780	-61.077900	-6.196872	-0.642063	 70.018410	 19.408170	 2.384659	 28.388700	-0.000001	 21.112060	 12.828980	 1.657141	-2.686509	 14.267310	 3.608908	 2.464660	 1.134409	 0.797832	-98.426180	 68.836750	 158.124100	 3.345216	-4.702198	-52.843490	 5.782187	-1.716788	-7.571496	-3.261798	-28.945920	-9.340158	-2.027600	 6.559038	 9.033609	-5.188889	 0.308190	 3.541030	-5.234859	 0.342567	 0.430617	-0.566058	 10.523470	-3.948047	 3.883277	-19.911500	-0.093176	 97.056800	 64.042810	-160.897600	-14.309840	 7.959745	 55.980690	-16.823680	-7.693555	 38.462980	-13.728100	-26.159650	 6.759346	 1.803333	 3.979147	-15.098590	 4.898592	 3.004813	-9.310344	 5.224449	 0.395017	 2.014677
-0.020173	 0.234845	 1.131264	 0.943384	 29.813570	-5.899776	 26.990730	-68.130730	-159.079000	 3.336107	-56.930860	 3.146109	 26.015580	 70.456090	-33.485640	-2.385832	 28.452790	-0.000001	 11.655590	-72.351290	-165.347200	-12.018200	-59.430380	-5.924136	-0.325553	 69.497850	 19.081970	 2.384659	 28.388700	-0.000001	 19.749410	 12.497300	 1.542836	-2.668734	 14.165000	 3.508746	 2.438638	 0.609579	 0.654373	-97.993860	 69.447650	 158.563600	 3.773198	-2.933577	-53.225460	 7.428367	-2.087159	-8.227903	-3.880056	-26.953420	-10.884860	-2.027600	 6.559038	 9.033609	-5.188889	 0.308190	 3.541030	-5.234859	 0.342567	 0.430617	-0.763359	 7.750034	-3.356423	 3.624128	-17.251730	-0.630396	 96.888170	 64.151080	-161.243600	-15.145840	 8.483516	 54.998900	-17.538130	-9.084253	 41.039990	-13.602140	-23.697550	 8.236250	 1.803333	 3.979147	-15.098590	 4.898592	 3.004813	-9.310344	 5.224449	 0.395017	 2.014677
-0.018502	 0.232986	 1.141562	 0.944769	 29.079860	-5.649463	 25.497560	-66.395250	-160.672800	 3.143416	-55.275890	 2.927167	 25.239980	 69.885610	-32.574160	-2.385833	 28.452760	 0.000004	 8.787908	-70.599680	-167.797800	-11.848900	-57.784850	-5.678115	-0.098578	 68.972370	 18.849190	 2.384659	 28.388700	-0.000001	 18.256940	 12.168070	 1.449761	-2.641632	 14.052650	 3.440974	 2.408267	 0.077009	 0.492923	-97.549640	 70.081090	 159.010100	 4.195186	-1.132510	-53.640820	 8.970424	-2.482492	-8.860927	-4.505479	-25.187930	-12.324670	-2.027600	 6.559038	 9.033609	-5.188889	 0.308190	 3.541030	-5.234859	 0.342567	 0.430617	-0.932721	 4.915779	-2.766113	 3.399249	-14.536360	-1.153209	 96.716920	 64.270710	-161.590900	-15.971630	 9.024468	 54.084050	-18.154740	-10.530670	 43.524440	-13.408890	-21.488060	 9.599022	 1.803333	 3.979147	-15.098590	 4.898592	 3.004813	-9.310344	 5.224449	 0.395017	 2.014677
